<svg width="680" height="640" xmlns="http://www.w3.org/2000/svg">
<style> path { fill: #7413dc } @media (prefers-color-scheme: dark) { path { fill: #ffffff } } </style>

 <g>
  <title>Layer 1</title>
  <path d="m286.34851,63.05001c-47.4,36.9 -70.9,86.1 -64.5,135.1c3.2,24.1 8.6,40.1 29.4,87.1c6.2,14.2 13.4,31.2 15.9,37.9c4.9,12.9 11.2,35.3 12.3,44l0.7,5.3l34.6,0l-0.6,-3.8c-3.4,-24.1 -12.4,-52.9 -26.3,-84.7c-29,-66.2 -32.6,-77.4 -32.4,-102.5c0,-10.5 0.5,-15.3 2.2,-21.5c7.4,-27.9 22.2,-48.7 49.7,-69.9c5,-3.9 14.3,-11.4 20.7,-16.8l11.8,-9.9l8.2,7.2c4.6,3.9 14.1,11.7 21.3,17.3c15.2,11.9 25.5,21.8 33.3,32.4c16.4,22.1 24.1,48.2 21.2,71.7c-2.5,20.2 -8,36.9 -24.6,74.1c-17,38.2 -24.7,58.8 -29.5,79.2c-2.1,8.6 -4.9,23.7 -4.9,25.9c0,1 4.1,1.3 17,1.3c19.3,0 16.8,1.4 19,-10.5c3.6,-19.2 10.9,-39.9 26.7,-75.3c22.1,-49.8 27.7,-67 30.3,-93.3c3.6,-37.2 -11.4,-77.6 -40,-108.2c-4.5,-4.8 -17.1,-15.8 -27.9,-24.4c-11.6,-9.3 -25.8,-21.9 -35,-31c-8.5,-8.4 -15.5,-15.3 -15.6,-15.3l-53,48.6zm-197.8,144.9c-39.6,7.5 -69.9,36.2 -80.9,76.5c-2,7.5 -2.3,10.7 -2.3,26.5c0.1,9.9 0.5,18.9 1,20.1l1,2.1l16,-3.5l16,-3.4l0,-14.7c0,-16.4 1.3,-22.2 8.3,-35.6c5.5,-10.6 18.2,-23 29.2,-28.4c21.7,-10.6 45.2,-9.2 67.8,4c8.8,5.2 27.7,24.6 35.5,36.5c13.1,19.8 25,48.9 29.9,73.1l2.3,11.3l33.8,0l-0.7,-6.3c-2.6,-23.6 -14.9,-59.5 -28.7,-83.6c-22.7,-39.9 -51.1,-64.2 -85.9,-73.3c-10.2,-2.6 -31.7,-3.3 -42.3,-1.3zm466.7,0c-34,6.1 -62.3,27.1 -86.4,64c-16.4,25.2 -30.6,63.8 -35.4,96.2l-0.6,4.3l17,0c12.8,0 17.1,-0.3 17.4,-1.3c0.2,-0.6 1.3,-5.9 2.5,-11.7c3.2,-15 10.3,-35.6 17,-49.5c22.6,-46.4 55,-71.2 90.1,-69.2c37.9,2.2 66.2,35.6 63.6,75.3l-0.6,10.1l15.7,3.5c8.7,1.9 16.1,3.2 16.5,2.9c1.6,-1.4 3,-17.1 2.5,-27.6c-2.3,-42.6 -29.8,-79.7 -69.2,-93.2c-15,-5.1 -34.7,-6.6 -50.1,-3.8zm-409.4,211l0,16.5l388,0l-0.2,-16.3l-0.3,-16.2l-193.7,-0.3l-193.8,-0.2l0,16.5zm132,50.7c-4.6,17.9 -13.9,38.7 -24.1,53.8c-3.6,5.2 -6.8,10 -7.2,10.6c-0.3,0.6 1.4,5.3 3.8,10.4c14.9,30.6 44.6,59.3 78.2,75.6l11.2,5.5l9.3,-4.5c34.9,-16.7 63.6,-44.1 79.7,-76.2l4.8,-9.8l-7.3,-10.8c-11.3,-16.6 -19.6,-34.4 -24,-51.6l-1.8,-7.2l-34.5,0l0.5,3.2c3.4,19.1 12.2,42.7 22.3,60.3l5.2,8.9l-4.7,6.8c-9.2,13.5 -28.5,31 -43.9,39.8l-5.7,3.3l-4.1,-2.3c-7.4,-4 -19.5,-13.2 -27.9,-20.9c-7.8,-7.3 -21.8,-24.2 -21.8,-26.4c0,-0.5 2,-4.4 4.4,-8.6c8.5,-14.4 16.6,-34.7 20.7,-51.6c3.3,-13.7 4.7,-12.5 -15.1,-12.5l-16.9,0l-1.1,4.2z" id="svg_1"/>
 </g>
</svg>